<?xml version="1.0" encoding="UTF-8" standalone="no"?>
<svg
   xmlns:dc="http://purl.org/dc/elements/1.1/"
   xmlns:cc="http://creativecommons.org/ns#"
   xmlns:rdf="http://www.w3.org/1999/02/22-rdf-syntax-ns#"
   xmlns:svg="http://www.w3.org/2000/svg"
   xmlns="http://www.w3.org/2000/svg"
   xmlns:sodipodi="http://sodipodi.sourceforge.net/DTD/sodipodi-0.dtd"
   xmlns:inkscape="http://www.inkscape.org/namespaces/inkscape"
   inkscape:version="1.0 (4035a4f, 2020-05-01)"
   sodipodi:docname="the-big-picture.svg"
   id="svg1025"
   height="875.3149518068803"
   width="866.2513152277074"
   viewBox="0 0 866.2513152277074 875.3149518068803"
   version="1.1">
  <metadata
     id="metadata1029">
    <rdf:RDF>
      <cc:Work
         rdf:about="">
        <dc:format>image/svg+xml</dc:format>
        <dc:type
           rdf:resource="http://purl.org/dc/dcmitype/StillImage" />
      </cc:Work>
    </rdf:RDF>
  </metadata>
  <sodipodi:namedview
     inkscape:current-layer="g969"
     inkscape:window-maximized="0"
     inkscape:window-y="23"
     inkscape:window-x="0"
     inkscape:cy="406.34297"
     inkscape:cx="403.30234"
     inkscape:zoom="0.67061577"
     showgrid="false"
     id="namedview1027"
     inkscape:window-height="755"
     inkscape:window-width="1225"
     inkscape:pageshadow="2"
     inkscape:pageopacity="0"
     guidetolerance="10"
     gridtolerance="10"
     objecttolerance="10"
     borderopacity="1"
     bordercolor="#666666"
     pagecolor="#ffffff"
     inkscape:document-rotation="0" />
  <!-- svg-source:excalidraw -->
  <defs
     id="defs835">
    <rect
       x="257.97186"
       y="216.21919"
       width="34.296837"
       height="65.611341"
       id="rect940" />
    <style
       id="style833">
      @font-face {
        font-family: &quot;Virgil&quot;;
        src: url(&quot;https://excalidraw.com/Virgil.woff2&quot;);
      }
      @font-face {
        font-family: &quot;Cascadia&quot;;
        src: url(&quot;https://excalidraw.com/Cascadia.woff2&quot;);
      }
    </style>
  </defs>
  <g
     id="g839"
     transform="matrix(0.93843381,0,0,0.88155301,35.304611,6.9724407)"
     stroke-linecap="round">
    <path
       id="path837"
       fill="none"
       stroke-width="1"
       stroke="#000000"
       d="m 846.25,427.66 c 0,6.78 -0.16,13.57 -0.48,20.35 -0.32,6.77 -0.8,13.55 -1.43,20.3 -0.64,6.75 -1.44,13.5 -2.4,20.21 -0.95,6.71 -2.07,13.41 -3.34,20.07 -1.27,6.66 -2.69,13.3 -4.28,19.89 -1.58,6.59 -3.32,13.15 -5.21,19.66 -1.89,6.51 -3.94,12.98 -6.13,19.39 -2.2,6.41 -4.54,12.77 -7.04,19.07 -2.49,6.3 -5.14,12.54 -7.93,18.71 -2.78,6.17 -5.72,12.28 -8.8,18.31 -3.07,6.03 -6.29,11.99 -9.65,17.87 -3.35,5.87 -6.85,11.67 -10.48,17.38 -3.63,5.7 -7.39,11.33 -11.29,16.85 -3.89,5.53 -7.92,10.97 -12.07,16.3 -4.14,5.33 -8.42,10.57 -12.82,15.69 -4.39,5.13 -8.91,10.16 -13.54,15.06 -4.64,4.91 -9.39,9.72 -14.24,14.4 -4.86,4.68 -9.83,9.25 -14.91,13.69 -5.07,4.44 -10.25,8.77 -15.53,12.96 -5.27,4.19 -10.65,8.26 -16.12,12.2 -5.46,3.93 -11.03,7.74 -16.68,11.41 -5.64,3.66 -11.38,7.2 -17.19,10.59 -5.81,3.39 -11.71,6.65 -17.68,9.75 -5.96,3.11 -12.01,6.08 -18.11,8.9 -6.11,2.82 -12.28,5.49 -18.51,8.01 -6.23,2.52 -12.53,4.9 -18.87,7.11 -6.35,2.22 -12.75,4.29 -19.19,6.2 -6.44,1.91 -12.93,3.67 -19.45,5.27 -6.52,1.6 -13.09,3.04 -19.68,4.33 -6.59,1.28 -13.21,2.41 -19.86,3.37 -6.64,0.97 -13.31,1.77 -19.99,2.42 -6.68,0.64 -13.39,1.13 -20.09,1.45 -6.7,0.32 -13.42,0.48 -20.13,0.48 -6.72,0 -13.43,-0.16 -20.14,-0.48 -6.7,-0.32 -13.4,-0.81 -20.08,-1.45 -6.69,-0.65 -13.36,-1.45 -20,-2.42 -6.64,-0.96 -13.27,-2.09 -19.86,-3.37 -6.59,-1.29 -13.16,-2.73 -19.68,-4.33 -6.52,-1.6 -13.01,-3.36 -19.45,-5.27 -6.44,-1.91 -12.84,-3.98 -19.19,-6.2 -6.34,-2.21 -12.63,-4.59 -18.86,-7.11 -6.23,-2.52 -12.41,-5.19 -18.52,-8.01 -6.1,-2.82 -12.15,-5.79 -18.11,-8.9 -5.97,-3.1 -11.87,-6.36 -17.68,-9.75 -5.81,-3.39 -11.55,-6.93 -17.19,-10.59 -5.65,-3.67 -11.21,-7.48 -16.68,-11.41 -5.47,-3.94 -10.85,-8.01 -16.12,-12.2 -5.28,-4.19 -10.46,-8.52 -15.53,-12.96 -5.07,-4.44 -10.05,-9.01 -14.9,-13.69 -4.86,-4.68 -9.61,-9.49 -14.24,-14.4 -4.64,-4.9 -9.16,-9.93 -13.55,-15.06 -4.4,-5.12 -8.68,-10.36 -12.82,-15.69 -4.15,-5.33 -8.18,-10.77 -12.07,-16.3 -3.9,-5.52 -7.66,-11.15 -11.29,-16.85 -3.63,-5.71 -7.13,-11.51 -10.48,-17.38 -3.36,-5.88 -6.58,-11.84 -9.65,-17.87 -3.08,-6.03 -6.02,-12.14 -8.8,-18.31 -2.79,-6.17 -5.44,-12.41 -7.93,-18.71 -2.49,-6.3 -4.84,-12.66 -7.04,-19.07 -2.19,-6.41 -4.24,-12.88 -6.13,-19.39 -1.89,-6.51 -3.63,-13.07 -5.21,-19.66 C 10.35,521.89 8.92,515.25 7.65,508.59 6.38,501.93 5.26,495.23 4.31,488.52 3.35,481.81 2.55,475.06 1.92,468.31 1.28,461.56 0.8,454.78 0.48,448.01 0.16,441.23 0,434.44 0,427.66 c 0,-6.79 0.16,-13.58 0.48,-20.35 0.32,-6.78 0.8,-13.55 1.44,-20.3 0.63,-6.76 1.43,-13.5 2.39,-20.21 0.95,-6.72 2.07,-13.42 3.34,-20.08 1.27,-6.66 2.7,-13.29 4.28,-19.89 1.58,-6.59 3.32,-13.15 5.21,-19.66 1.89,-6.51 3.94,-12.98 6.13,-19.39 2.2,-6.41 4.55,-12.77 7.04,-19.07 2.49,-6.29 5.14,-12.54 7.93,-18.71 2.78,-6.17 5.72,-12.28 8.8,-18.31 3.07,-6.03 6.29,-11.99 9.65,-17.86 3.35,-5.88 6.85,-11.68 10.48,-17.38 3.63,-5.71 7.39,-11.33 11.29,-16.86 3.89,-5.52 7.92,-10.96 12.07,-16.29 4.14,-5.33 8.42,-10.57 12.82,-15.7 4.39,-5.12 8.91,-10.15 13.55,-15.06 4.63,-4.91 9.38,-9.71 14.24,-14.39 4.85,-4.68 9.83,-9.25 14.9,-13.69 5.07,-4.45 10.25,-8.77 15.53,-12.96 5.27,-4.2 10.65,-8.27 16.12,-12.2 5.47,-3.94 11.03,-7.74 16.68,-11.41 5.64,-3.67 11.38,-7.2 17.19,-10.59 5.81,-3.4 11.71,-6.65 17.68,-9.76 5.96,-3.11 12.01,-6.08 18.11,-8.89 6.11,-2.82 12.29,-5.5 18.52,-8.02 6.23,-2.52 12.52,-4.89 18.86,-7.11 6.35,-2.22 12.75,-4.29 19.19,-6.2 6.44,-1.91 12.93,-3.67 19.45,-5.27 6.52,-1.59 13.09,-3.04 19.68,-4.32 6.59,-1.29 13.22,-2.41 19.86,-3.38 6.64,-0.96 13.31,-1.77 20,-2.41 6.68,-0.65 13.38,-1.13 20.08,-1.46 C 409.7,0.16 416.41,0 423.13,0 c 6.71,0 13.43,0.16 20.13,0.48 6.7,0.33 13.41,0.81 20.09,1.46 6.68,0.64 13.35,1.45 19.99,2.41 6.65,0.97 13.27,2.09 19.86,3.38 6.59,1.28 13.16,2.73 19.68,4.32 6.52,1.6 13.01,3.36 19.45,5.27 6.44,1.91 12.84,3.98 19.19,6.2 6.34,2.22 12.64,4.59 18.87,7.11 6.23,2.52 12.4,5.2 18.51,8.02 6.1,2.81 12.15,5.78 18.11,8.89 5.97,3.11 11.87,6.36 17.68,9.76 5.81,3.39 11.55,6.92 17.19,10.59 5.65,3.67 11.22,7.47 16.68,11.41 5.47,3.93 10.85,8 16.12,12.2 5.28,4.19 10.46,8.51 15.53,12.96 5.08,4.44 10.05,9.01 14.91,13.69 4.85,4.68 9.6,9.48 14.24,14.39 4.63,4.91 9.15,9.94 13.54,15.06 4.4,5.13 8.68,10.37 12.82,15.7 4.15,5.33 8.18,10.77 12.07,16.29 3.9,5.53 7.66,11.15 11.29,16.86 3.63,5.7 7.13,11.5 10.48,17.38 3.36,5.87 6.58,11.83 9.65,17.86 3.08,6.03 6.02,12.14 8.8,18.31 2.79,6.17 5.44,12.42 7.93,18.71 2.5,6.3 4.84,12.66 7.04,19.07 2.19,6.41 4.24,12.88 6.13,19.39 1.89,6.51 3.63,13.07 5.21,19.66 1.59,6.6 3.01,13.23 4.28,19.89 1.27,6.66 2.39,13.36 3.34,20.08 0.96,6.71 1.76,13.45 2.4,20.21 0.63,6.75 1.11,13.52 1.43,20.3 0.32,6.77 0.48,13.56 0.48,20.35" />
  </g>
  <g
     id="g843"
     transform="matrix(0.88483134,0,0,0.87166911,212.92537,567.54017)"
     stroke-linecap="round">
    <path
       id="path841"
       fill="none"
       stroke-width="2"
       stroke="#000000"
       d="m 19.43,8.94 c 0,0.52 -0.05,1.04 -0.15,1.55 -0.1,0.51 -0.25,1.02 -0.44,1.51 -0.19,0.48 -0.43,0.96 -0.71,1.41 -0.29,0.45 -0.61,0.88 -0.98,1.28 -0.36,0.39 -0.76,0.77 -1.19,1.1 -0.43,0.33 -0.9,0.63 -1.39,0.89 -0.49,0.26 -1.01,0.48 -1.53,0.66 -0.53,0.18 -1.09,0.32 -1.64,0.41 -0.55,0.09 -1.12,0.13 -1.69,0.13 -0.56,0 -1.13,-0.04 -1.68,-0.13 C 7.47,17.66 6.92,17.52 6.39,17.34 5.86,17.16 5.34,16.94 4.86,16.68 4.37,16.42 3.9,16.12 3.47,15.79 3.04,15.46 2.63,15.08 2.27,14.69 1.91,14.29 1.58,13.86 1.3,13.41 1.02,12.96 0.78,12.48 0.59,12 0.39,11.51 0.25,11 0.15,10.49 0.05,9.98 0,9.46 0,8.94 0,8.42 0.05,7.9 0.15,7.39 0.25,6.88 0.39,6.37 0.59,5.88 0.78,5.4 1.02,4.92 1.3,4.47 1.58,4.02 1.91,3.59 2.27,3.19 2.63,2.8 3.04,2.42 3.47,2.09 3.9,1.76 4.37,1.46 4.86,1.2 5.34,0.94 5.86,0.72 6.39,0.54 6.92,0.36 7.47,0.23 8.03,0.14 8.58,0.05 9.15,0 9.71,0 c 0.57,0 1.14,0.05 1.69,0.14 0.55,0.09 1.11,0.22 1.64,0.4 0.52,0.18 1.04,0.4 1.53,0.66 0.49,0.26 0.96,0.56 1.39,0.89 0.43,0.33 0.83,0.71 1.19,1.1 0.37,0.4 0.69,0.83 0.98,1.28 0.28,0.45 0.52,0.93 0.71,1.41 0.19,0.49 0.34,1 0.44,1.51 0.1,0.51 0.12,1.29 0.15,1.55 0.02,0.26 0.02,-0.26 0,0" />
  </g>
  <g
     transform="matrix(0.88483134,0,0,0.87166911,47.832081,25.169342)"
     id="g849"
     stroke-linecap="round">
    <g
       id="g847"
       transform="translate(195.23383,640.03976)">
      <path
         id="path845"
         fill="none"
         stroke-width="2"
         stroke="#000000"
         d="M 0,0 C -0.16,3.61 -0.79,18.06 -0.95,21.68 M 0,0 c -0.16,3.61 -0.79,18.06 -0.95,21.68" />
    </g>
  </g>
  <g
     transform="matrix(0.88483134,0,0,0.87166911,47.832081,25.169342)"
     id="g855"
     stroke-linecap="round">
    <g
       id="g853"
       transform="translate(194.32786,662.27239)">
      <path
         id="path851"
         fill="none"
         stroke-width="2"
         stroke="#000000"
         d="M 0,0 C 1.43,2.2 7.15,11.02 8.58,13.22 M 0,0 c 1.43,2.2 7.15,11.02 8.58,13.22" />
    </g>
  </g>
  <g
     transform="matrix(0.88483134,0,0,0.87166911,47.832081,25.169342)"
     id="g861"
     stroke-linecap="round">
    <g
       id="g859"
       transform="translate(193.06533,661.30457)">
      <path
         id="path857"
         fill="none"
         stroke-width="2"
         stroke="#000000"
         d="M 0,0 C -1.22,2.05 -6.12,10.23 -7.34,12.28 M 0,0 c -1.22,2.05 -6.12,10.23 -7.34,12.28" />
    </g>
  </g>
  <g
     transform="matrix(0.88483134,0,0,0.87166911,47.832081,25.169342)"
     id="g867"
     stroke-linecap="round">
    <g
       id="g865"
       transform="translate(183.26379,652.26617)">
      <path
         id="path863"
         fill="none"
         stroke-width="2"
         stroke="#000000"
         d="M 0,0 C 1.89,-1.21 9.45,-6.06 11.35,-7.27 M 0,0 c 1.89,-1.21 9.45,-6.06 11.35,-7.27" />
    </g>
  </g>
  <g
     transform="matrix(0.88483134,0,0,0.87166911,47.832081,25.169342)"
     id="g873"
     stroke-linecap="round">
    <g
       id="g871"
       transform="translate(194.34172,644.63353)">
      <path
         id="path869"
         fill="none"
         stroke-width="2"
         stroke="#000000"
         d="M 0,0 C 1.35,1.61 6.76,8.06 8.12,9.67 M 0,0 c 1.35,1.61 6.76,8.06 8.12,9.67" />
    </g>
  </g>
  <g
     id="g877"
     transform="matrix(0.88483134,0,0,0.87166911,399.77379,212.82342)"
     stroke-linecap="round">
    <path
       id="path875"
       fill="none"
       stroke-width="2"
       stroke="#000000"
       d="m 62.36,29.89 c 0,1.73 -0.16,3.49 -0.47,5.19 -0.32,1.71 -0.79,3.41 -1.41,5.03 -0.62,1.63 -1.4,3.23 -2.3,4.73 -0.9,1.5 -1.96,2.94 -3.12,4.26 -1.16,1.33 -2.46,2.58 -3.84,3.69 -1.38,1.11 -2.89,2.12 -4.45,2.99 -1.56,0.86 -3.23,1.61 -4.93,2.2 -1.69,0.59 -3.47,1.05 -5.25,1.35 -1.77,0.3 -3.61,0.45 -5.41,0.45 -1.81,0 -3.64,-0.15 -5.41,-0.45 -1.78,-0.3 -3.56,-0.76 -5.25,-1.35 -1.7,-0.59 -3.37,-1.34 -4.93,-2.2 C 14.03,54.91 12.52,53.9 11.14,52.79 9.76,51.68 8.45,50.43 7.29,49.1 6.13,47.78 5.08,46.34 4.18,44.84 3.27,43.34 2.5,41.74 1.88,40.11 1.26,38.49 0.79,36.79 0.47,35.08 0.16,33.38 0,31.62 0,29.89 0,28.16 0.16,26.4 0.47,24.7 0.79,23 1.26,21.29 1.88,19.67 2.5,18.04 3.27,16.44 4.18,14.95 5.08,13.45 6.13,12 7.29,10.68 8.45,9.35 9.76,8.11 11.14,6.99 12.52,5.88 14.03,4.87 15.59,4 17.15,3.14 18.82,2.39 20.52,1.8 22.21,1.21 23.99,0.75 25.77,0.45 27.54,0.15 29.37,0 31.18,0 c 1.8,0 3.64,0.15 5.41,0.45 1.78,0.3 3.56,0.76 5.25,1.35 1.7,0.59 3.37,1.34 4.93,2.2 1.56,0.87 3.07,1.88 4.45,2.99 1.38,1.12 2.68,2.36 3.84,3.69 1.16,1.32 2.22,2.77 3.12,4.27 0.9,1.49 1.68,3.09 2.3,4.72 0.62,1.62 1.09,3.33 1.41,5.03 0.31,1.7 0.39,4.33 0.47,5.19 0.08,0.87 0.08,-0.86 0,0" />
  </g>
  <g
     transform="matrix(0.88483134,0,0,0.87166911,47.832081,25.169342)"
     id="g883"
     stroke-linecap="round">
    <g
       id="g881"
       transform="translate(429.72662,216.78226)">
      <path
         id="path879"
         fill="none"
         stroke-width="2"
         stroke="#000000"
         d="M 0,0 C -0.17,9.71 -0.86,48.53 -1.03,58.24 M 0,0 c -0.17,9.71 -0.86,48.53 -1.03,58.24" />
    </g>
  </g>
  <g
     transform="matrix(0.88483134,0,0,0.87166911,47.832081,25.169342)"
     id="g889"
     stroke-linecap="round">
    <g
       id="g887"
       transform="translate(410.80663,226.42345)">
      <path
         id="path885"
         fill="none"
         stroke-width="2"
         stroke="#000000"
         d="m -1.35,-1.35 c -0.17,-0.08 -0.86,-0.34 -1.03,-0.51 -0.17,-0.17 -0.34,-0.86 0,-0.52 0.35,0.35 0.6,1.38 2.06,2.58 1.46,1.2 2.32,3.26 6.7,4.64 4.38,1.37 15.98,3.17 19.59,3.6 3.6,0.43 0.34,-0.51 2.06,-1.03 1.72,-0.51 5.75,-0.86 8.24,-2.06 2.49,-1.2 5.59,-4.12 6.7,-5.15 1.12,-1.03 -0.08,-0.86 0,-1.03 0.09,-0.17 0.52,-0.26 0.52,0 0,0.26 -0.43,1.29 -0.52,1.54 M -1.35,-1.35 c -0.17,-0.08 -0.86,-0.34 -1.03,-0.51 -0.17,-0.17 -0.34,-0.86 0,-0.52 0.35,0.35 0.6,1.38 2.06,2.58 1.46,1.2 2.32,3.26 6.7,4.64 4.38,1.37 15.98,3.17 19.59,3.6 3.6,0.43 0.34,-0.51 2.06,-1.03 1.72,-0.51 5.75,-0.86 8.24,-2.06 2.49,-1.2 5.59,-4.12 6.7,-5.15 1.12,-1.03 -0.08,-0.86 0,-1.03 0.09,-0.17 0.52,-0.26 0.52,0 0,0.26 -0.43,1.29 -0.52,1.54" />
    </g>
  </g>
  <g
     transform="matrix(0.88483134,0,0,0.87166911,47.832081,25.169342)"
     id="g895"
     stroke-linecap="round">
    <g
       id="g893"
       transform="translate(407.52406,284.35368)">
      <path
         id="path891"
         fill="none"
         stroke-width="2"
         stroke="#000000"
         d="m 0,-15.5 c 1.46,-1.03 3.69,-4.21 8.76,-6.18 5.07,-1.98 16.92,-4.9 21.65,-5.67 4.72,-0.77 4.55,-0.09 6.7,1.03 2.14,1.12 4.98,4.38 6.18,5.67 1.2,1.29 0.69,1.63 1.03,2.06 0.34,0.43 0.86,0.43 1.03,0.52 M 0,-15.5 c 1.46,-1.03 3.69,-4.21 8.76,-6.18 5.07,-1.98 16.92,-4.9 21.65,-5.67 4.72,-0.77 4.55,-0.09 6.7,1.03 2.14,1.12 4.98,4.38 6.18,5.67 1.2,1.29 0.69,1.63 1.03,2.06 0.34,0.43 0.86,0.43 1.03,0.52" />
    </g>
  </g>
  <g
     transform="matrix(0.88483134,0,0,0.87166911,47.832081,25.169342)"
     id="g901"
     stroke-linecap="round">
    <g
       id="g899"
       transform="translate(397.70311,246.57923)">
      <path
         id="path897"
         fill="none"
         stroke-width="2"
         stroke="#000000"
         d="M 0,0 C 10.14,0.09 50.68,0.43 60.81,0.52 M 0,0 c 10.14,0.09 50.68,0.43 60.81,0.52" />
    </g>
  </g>
  <g
     transform="matrix(0.88483134,0,0,0.87166911,47.832081,25.169342)"
     id="g907"
     stroke-linecap="round">
    <g
       id="g905"
       transform="translate(429.16554,218.90666)">
      <path
         id="path903"
         fill="none"
         stroke-width="2"
         stroke="#000000"
         d="m 0,-0.67 c 0.26,-0.09 0.86,-0.52 1.55,-0.52 0.68,0 1.03,-0.43 2.57,0.52 1.55,0.94 5.41,4.03 6.7,5.15 1.29,1.12 0.26,-1.72 1.03,1.55 0.78,3.26 3.01,13.65 3.61,18.03 0.6,4.38 0.52,5.16 0,8.25 -0.51,3.09 -1.72,6.96 -3.09,10.31 -1.38,3.35 -3.52,7.3 -5.15,9.79 -1.64,2.49 -3.61,4.38 -4.64,5.15 -1.03,0.78 -1.29,-0.51 -1.55,-0.51 -0.26,0 0,0.43 0,0.51 M 0,-0.67 c 0.26,-0.09 0.86,-0.52 1.55,-0.52 0.68,0 1.03,-0.43 2.57,0.52 1.55,0.94 5.41,4.03 6.7,5.15 1.29,1.12 0.26,-1.72 1.03,1.55 0.78,3.26 3.01,13.65 3.61,18.03 0.6,4.38 0.52,5.16 0,8.25 -0.51,3.09 -1.72,6.96 -3.09,10.31 -1.38,3.35 -3.52,7.3 -5.15,9.79 -1.64,2.49 -3.61,4.38 -4.64,5.15 -1.03,0.78 -1.29,-0.51 -1.55,-0.51 -0.26,0 0,0.43 0,0.51" />
    </g>
  </g>
  <g
     transform="matrix(0.88483134,0,0,0.87166911,47.832081,25.169342)"
     id="g913"
     stroke-linecap="round">
    <g
       id="g911"
       transform="translate(452.14105,220.68813)">
      <path
         id="path909"
         fill="none"
         stroke-width="2"
         stroke="#000000"
         d="m -23.58,-1.35 c -0.09,-0.17 1.03,-1.97 -0.52,-1.03 -1.54,0.95 -6.27,3.87 -8.76,6.7 -2.49,2.84 -4.72,6.1 -6.18,10.31 -1.46,4.21 -2.49,10.82 -2.58,14.94 -0.09,4.13 1.29,7.39 2.06,9.8 0.77,2.4 1.81,3.78 2.58,4.63 0.77,0.86 1.03,-0.08 2.06,0.52 1.03,0.6 3.01,1.89 4.12,3.09 1.12,1.2 1.81,3.44 2.58,4.12 0.77,0.69 1.72,0 2.06,0 m 2.58,-53.08 c -0.09,-0.17 1.03,-1.97 -0.52,-1.03 -1.54,0.95 -6.27,3.87 -8.76,6.7 -2.49,2.84 -4.72,6.1 -6.18,10.31 -1.46,4.21 -2.49,10.82 -2.58,14.94 -0.09,4.13 1.29,7.39 2.06,9.8 0.77,2.4 1.81,3.78 2.58,4.63 0.77,0.86 1.03,-0.08 2.06,0.52 1.03,0.6 3.01,1.89 4.12,3.09 1.12,1.2 1.81,3.44 2.58,4.12 0.77,0.69 1.72,0 2.06,0" />
    </g>
  </g>
  <g
     id="g919"
     transform="matrix(0.88483134,0,0,0.87166911,648.5013,574.60993)"
     stroke-linecap="round">
    <path
       id="path915"
       fill="#000000"
       stroke-width="0"
       stroke="none"
       d="M 0,0 H 33.84 V 40.38 H 0" />
    <path
       id="path917"
       fill="none"
       stroke-width="4"
       stroke="#000000"
       d="M 0,0 C 11.06,0 22.13,0 33.84,0 M 0,0 c 12.13,0 24.26,0 33.84,0 m 0,0 c 0,13.11 0,26.23 0,40.38 M 33.84,0 c 0,15.02 0,30.03 0,40.38 m 0,0 c -13.47,0 -26.94,0 -33.84,0 m 33.84,0 c -11.08,0 -22.16,0 -33.84,0 m 0,0 C 0,27.72 0,15.05 0,0 M 0,40.38 C 0,28.02 0,15.65 0,0" />
  </g>
  <g
     id="g925"
     transform="matrix(0.88483134,0,0,0.87166911,648.7521,604.9175)"
     stroke-linecap="round">
    <path
       id="path921"
       fill="#000000"
       stroke-width="0"
       stroke="none"
       d="m 33.79,6.38 c 0,0.37 -0.09,0.74 -0.26,1.11 -0.17,0.36 -0.43,0.73 -0.76,1.07 -0.33,0.35 -0.76,0.69 -1.24,1.01 -0.49,0.32 -1.06,0.63 -1.69,0.91 -0.63,0.28 -1.34,0.55 -2.09,0.79 -0.74,0.24 -1.56,0.45 -2.41,0.64 -0.85,0.18 -1.75,0.34 -2.67,0.47 -0.92,0.12 -1.88,0.22 -2.84,0.28 -0.96,0.07 -1.96,0.1 -2.94,0.1 -0.97,0 -1.97,-0.03 -2.93,-0.1 C 13,12.6 12.04,12.5 11.12,12.38 10.2,12.25 9.29,12.09 8.45,11.91 7.6,11.72 6.78,11.51 6.03,11.27 5.29,11.03 4.58,10.76 3.95,10.48 3.32,10.2 2.75,9.89 2.26,9.57 1.77,9.25 1.35,8.91 1.02,8.56 0.68,8.22 0.43,7.85 0.26,7.49 0.09,7.12 0,6.75 0,6.38 0,6.01 0.09,5.64 0.26,5.27 0.43,4.91 0.68,4.55 1.02,4.2 1.35,3.85 1.77,3.51 2.26,3.19 2.75,2.87 3.32,2.56 3.95,2.28 4.58,2 5.29,1.73 6.03,1.49 6.78,1.26 7.6,1.04 8.45,0.85 9.29,0.67 10.2,0.51 11.12,0.38 12.04,0.26 13,0.16 13.96,0.1 14.92,0.03 15.92,0 16.89,0 c 0.98,0 1.98,0.03 2.94,0.1 0.96,0.06 1.92,0.16 2.84,0.28 0.92,0.13 1.82,0.29 2.67,0.47 0.85,0.19 1.67,0.41 2.41,0.64 0.75,0.24 1.46,0.51 2.09,0.79 0.63,0.28 1.2,0.59 1.69,0.91 0.48,0.32 0.91,0.66 1.24,1.01 0.33,0.35 0.59,0.71 0.76,1.07 0.17,0.37 0.22,0.93 0.26,1.11 0.04,0.19 0.04,-0.18 0,0" />
    <path
       id="path923"
       fill="none"
       stroke-width="4"
       stroke="#000000"
       d="m 33.79,6.38 c 0,0.37 -0.09,0.74 -0.26,1.11 -0.17,0.36 -0.43,0.73 -0.76,1.07 -0.33,0.35 -0.76,0.69 -1.24,1.01 -0.49,0.32 -1.06,0.63 -1.69,0.91 -0.63,0.28 -1.34,0.55 -2.09,0.79 -0.74,0.24 -1.56,0.45 -2.41,0.64 -0.85,0.18 -1.75,0.34 -2.67,0.47 -0.92,0.12 -1.88,0.22 -2.84,0.28 -0.96,0.07 -1.96,0.1 -2.94,0.1 -0.97,0 -1.97,-0.03 -2.93,-0.1 C 13,12.6 12.04,12.5 11.12,12.38 10.2,12.25 9.29,12.09 8.45,11.91 7.6,11.72 6.78,11.51 6.03,11.27 5.29,11.03 4.58,10.76 3.95,10.48 3.32,10.2 2.75,9.89 2.26,9.57 1.77,9.25 1.35,8.91 1.02,8.56 0.68,8.22 0.43,7.85 0.26,7.49 0.09,7.12 0,6.75 0,6.38 0,6.01 0.09,5.64 0.26,5.27 0.43,4.91 0.68,4.55 1.02,4.2 1.35,3.85 1.77,3.51 2.26,3.19 2.75,2.87 3.32,2.56 3.95,2.28 4.58,2 5.29,1.73 6.03,1.49 6.78,1.26 7.6,1.04 8.45,0.85 9.29,0.67 10.2,0.51 11.12,0.38 12.04,0.26 13,0.16 13.96,0.1 14.92,0.03 15.92,0 16.89,0 c 0.98,0 1.98,0.03 2.94,0.1 0.96,0.06 1.92,0.16 2.84,0.28 0.92,0.13 1.82,0.29 2.67,0.47 0.85,0.19 1.67,0.41 2.41,0.64 0.75,0.24 1.46,0.51 2.09,0.79 0.63,0.28 1.2,0.59 1.69,0.91 0.48,0.32 0.91,0.66 1.24,1.01 0.33,0.35 0.59,0.71 0.76,1.07 0.17,0.37 0.22,0.93 0.26,1.11 0.04,0.19 0.04,-0.18 0,0" />
  </g>
  <g
     id="g931"
     transform="matrix(0.88483134,0,0,0.87166911,648.66799,570.22085)"
     stroke-linecap="round">
    <path
       id="path927"
       fill="#000000"
       stroke-width="0"
       stroke="none"
       d="m 33.79,6.38 c 0,0.37 -0.09,0.74 -0.26,1.11 -0.17,0.36 -0.43,0.73 -0.76,1.07 -0.33,0.35 -0.76,0.69 -1.24,1.01 -0.49,0.32 -1.06,0.63 -1.69,0.91 -0.63,0.28 -1.34,0.55 -2.09,0.79 -0.74,0.24 -1.56,0.45 -2.41,0.64 -0.85,0.18 -1.75,0.34 -2.67,0.47 -0.92,0.12 -1.88,0.22 -2.84,0.28 -0.96,0.07 -1.96,0.1 -2.94,0.1 -0.97,0 -1.97,-0.03 -2.93,-0.1 C 13,12.6 12.04,12.5 11.12,12.38 10.2,12.25 9.29,12.09 8.45,11.91 7.6,11.72 6.78,11.51 6.03,11.27 5.29,11.03 4.58,10.76 3.95,10.48 3.32,10.2 2.75,9.89 2.26,9.57 1.77,9.25 1.35,8.91 1.02,8.56 0.68,8.22 0.43,7.85 0.26,7.49 0.09,7.12 0,6.75 0,6.38 0,6.01 0.09,5.64 0.26,5.27 0.43,4.91 0.68,4.55 1.02,4.2 1.35,3.85 1.77,3.51 2.26,3.19 2.75,2.87 3.32,2.56 3.95,2.28 4.58,2 5.29,1.73 6.03,1.49 6.78,1.26 7.6,1.04 8.45,0.85 9.29,0.67 10.2,0.51 11.12,0.38 12.04,0.26 13,0.16 13.96,0.1 14.92,0.03 15.92,0 16.89,0 c 0.98,0 1.98,0.03 2.94,0.1 0.96,0.06 1.92,0.16 2.84,0.28 0.92,0.13 1.82,0.29 2.67,0.47 0.85,0.19 1.67,0.41 2.41,0.64 0.75,0.24 1.46,0.51 2.09,0.79 0.63,0.28 1.2,0.59 1.69,0.91 0.48,0.32 0.91,0.66 1.24,1.01 0.33,0.35 0.59,0.71 0.76,1.07 0.17,0.37 0.22,0.93 0.26,1.11 0.04,0.19 0.04,-0.18 0,0" />
    <path
       id="path929"
       fill="none"
       stroke-width="4"
       stroke="#000000"
       d="m 33.79,6.38 c 0,0.37 -0.09,0.74 -0.26,1.11 -0.17,0.36 -0.43,0.73 -0.76,1.07 -0.33,0.35 -0.76,0.69 -1.24,1.01 -0.49,0.32 -1.06,0.63 -1.69,0.91 -0.63,0.28 -1.34,0.55 -2.09,0.79 -0.74,0.24 -1.56,0.45 -2.41,0.64 -0.85,0.18 -1.75,0.34 -2.67,0.47 -0.92,0.12 -1.88,0.22 -2.84,0.28 -0.96,0.07 -1.96,0.1 -2.94,0.1 -0.97,0 -1.97,-0.03 -2.93,-0.1 C 13,12.6 12.04,12.5 11.12,12.38 10.2,12.25 9.29,12.09 8.45,11.91 7.6,11.72 6.78,11.51 6.03,11.27 5.29,11.03 4.58,10.76 3.95,10.48 3.32,10.2 2.75,9.89 2.26,9.57 1.77,9.25 1.35,8.91 1.02,8.56 0.68,8.22 0.43,7.85 0.26,7.49 0.09,7.12 0,6.75 0,6.38 0,6.01 0.09,5.64 0.26,5.27 0.43,4.91 0.68,4.55 1.02,4.2 1.35,3.85 1.77,3.51 2.26,3.19 2.75,2.87 3.32,2.56 3.95,2.28 4.58,2 5.29,1.73 6.03,1.49 6.78,1.26 7.6,1.04 8.45,0.85 9.29,0.67 10.2,0.51 11.12,0.38 12.04,0.26 13,0.16 13.96,0.1 14.92,0.03 15.92,0 16.89,0 c 0.98,0 1.98,0.03 2.94,0.1 0.96,0.06 1.92,0.16 2.84,0.28 0.92,0.13 1.82,0.29 2.67,0.47 0.85,0.19 1.67,0.41 2.41,0.64 0.75,0.24 1.46,0.51 2.09,0.79 0.63,0.28 1.2,0.59 1.69,0.91 0.48,0.32 0.91,0.66 1.24,1.01 0.33,0.35 0.59,0.71 0.76,1.07 0.17,0.37 0.22,0.93 0.26,1.11 0.04,0.19 0.04,-0.18 0,0" />
  </g>
  <g
     transform="matrix(0.88483134,0,0,0.87166911,47.832081,25.169342)"
     id="g937"
     stroke-linecap="round">
    <g
       id="g935"
       transform="translate(679.57849,632.08457)">
      <path
         id="path933"
         fill="none"
         stroke-width="4"
         stroke="#ffffff"
         d="m 0,-0.03 c 0.23,0.31 -1.39,1.09 1.37,1.87 2.77,0.79 11.47,2.52 15.22,2.86 3.75,0.34 4.66,-0.03 7.29,-0.82 2.64,-0.8 7.09,-3.29 8.51,-3.95 M 0,-0.03 c 0.23,0.31 -1.39,1.09 1.37,1.87 2.77,0.79 11.47,2.52 15.22,2.86 3.75,0.34 4.66,-0.03 7.29,-0.82 2.64,-0.8 7.09,-3.29 8.51,-3.95" />
    </g>
  </g>
  <g
     transform="matrix(0.88483134,0,0,0.87166911,47.832081,25.169342)"
     id="g943"
     stroke-linecap="round">
    <g
       id="g941"
       transform="translate(678.64112,644.35621)">
      <path
         id="path939"
         fill="none"
         stroke-width="4"
         stroke="#ffffff"
         d="m 0,0 c 0.52,0.35 0.48,1.25 3.11,2.11 2.63,0.86 8.75,2.49 12.67,3.05 3.92,0.56 7.72,0.82 10.85,0.31 3.13,-0.5 6.61,-2.79 7.93,-3.35 M 0,0 c 0.52,0.35 0.48,1.25 3.11,2.11 2.63,0.86 8.75,2.49 12.67,3.05 3.92,0.56 7.72,0.82 10.85,0.31 3.13,-0.5 6.61,-2.79 7.93,-3.35" />
    </g>
  </g>
  <g
     transform="matrix(0.88483134,0,0,0.87166911,47.832081,25.169342)"
     id="g949"
     stroke-linecap="round">
    <g
       id="g947"
       transform="translate(679.07993,657.79969)">
      <path
         id="path945"
         fill="none"
         stroke-width="4"
         stroke="#ffffff"
         d="m 0,0 c 0.09,0.19 -0.35,0.41 0.56,1.12 0.91,0.71 2.62,2.25 4.9,3.15 2.27,0.91 5.05,1.86 8.74,2.26 3.68,0.4 10.07,0.73 13.35,0.15 3.28,-0.59 5.27,-3.06 6.32,-3.67 M 0,0 c 0.09,0.19 -0.35,0.41 0.56,1.12 0.91,0.71 2.62,2.25 4.9,3.15 2.27,0.91 5.05,1.86 8.74,2.26 3.68,0.4 10.07,0.73 13.35,0.15 3.28,-0.59 5.27,-3.06 6.32,-3.67" />
    </g>
  </g>
  <g
     id="g953"
     transform="matrix(0.88483134,0,0,0.87166911,373.23343,182.16557)">
    <text
       id="text951"
       direction="ltr"
       style="white-space:pre;font-size:22.26200000000000045px;font-family:Cascadia, 'Segoe UI Emoji';direction:ltr;text-anchor:start;fill:#000000;"
       text-anchor="start"
       fill="#000000"
       font-size="22.262px"
       font-family="Cascadia, 'Segoe UI Emoji'"
       y="21.714354"
       x="0"><tspan
         style="font-style:normal;font-variant:normal;font-weight:normal;font-stretch:normal;font-size:30.3643px;font-family:Cascadia, 'Segoe UI Emoji';-inkscape-font-specification:'Cascadia, Segoe UI Emoji, Normal';font-variant-ligatures:normal;font-variant-caps:normal;font-variant-numeric:normal;font-variant-east-asian:normal"
         id="tspan944">The World</tspan></text>
  </g>
  <g
     transform="matrix(0.88483134,0,0,0.87166911,47.832081,25.169342)"
     id="g965"
     stroke-linecap="round">
    <g
       id="g957"
       transform="translate(449.55487,276.34121)">
      <path
         id="path955"
         fill="none"
         stroke-width="1"
         stroke="#000000"
         d="M 0,0 C 74.92,115.22 149.83,230.43 224.03,344.54 M 0,0 c 46.82,72 93.63,144 224.03,344.54" />
    </g>
    <g
       id="g963"
       transform="translate(449.55487,276.34121)">
      <path
         id="path959"
         fill-rule="evenodd"
         fill="#000000"
         stroke-width="0"
         stroke="none"
         d="m 224.03,344.54 -12.73,-7.94 10.63,-6.91 2.1,14.85" />
      <path
         id="path961"
         fill="none"
         stroke-width="1"
         stroke="#000000"
         d="m 224.03,344.54 c -4.26,-2.66 -8.51,-5.31 -12.73,-7.94 m 12.73,7.94 c -2.66,-1.66 -5.32,-3.32 -12.73,-7.94 m 0,0 c 2.44,-1.59 4.88,-3.17 10.63,-6.91 m -10.63,6.91 c 2.19,-1.42 4.37,-2.84 10.63,-6.91 m 0,0 c 0.72,5.1 1.44,10.21 2.1,14.85 m -2.1,-14.85 c 0.71,4.98 1.41,9.96 2.1,14.85 m 0,0 c 0,0 0,0 0,0 m 0,0 c 0,0 0,0 0,0" />
    </g>
  </g>
  <g
     id="g969"
     transform="matrix(0.47722554,0.7479156,-0.79725213,0.44769329,500.79812,276.65454)">
    <text
       id="text967"
       direction="ltr"
       style="font-size:20px;font-family:Cascadia, 'Segoe UI Emoji';direction:ltr;text-anchor:start;white-space:pre;fill:#000000"
       text-anchor="start"
       fill="#000000"
       font-size="20px"
       font-family="Cascadia, 'Segoe UI Emoji'"
       y="22.691015"
       x="14.339299"><tspan
         style="font-style:normal;font-variant:normal;font-weight:normal;font-stretch:normal;font-size:30.3643px;font-family:Cascadia, 'Segoe UI Emoji';-inkscape-font-specification:'Cascadia, Segoe UI Emoji, Normal';font-variant-ligatures:normal;font-variant-caps:normal;font-variant-numeric:normal;font-variant-east-asian:normal"
         id="tspan934">... is modelled with ...</tspan></text>
  </g>
  <g
     id="g973"
     transform="matrix(0.88483134,0,0,0.87166911,643.84126,631.50959)">
    <text
       id="text971"
       direction="ltr"
       style="white-space:pre;font-size:22.26200000000000045px;font-family:Cascadia, 'Segoe UI Emoji';direction:ltr;text-anchor:start;fill:#000000;"
       text-anchor="start"
       fill="#000000"
       font-size="22.262px"
       font-family="Cascadia, 'Segoe UI Emoji'"
       y="21.714354"
       x="0"><tspan
         style="font-style:normal;font-variant:normal;font-weight:normal;font-stretch:normal;font-size:30.3643px;font-family:Cascadia, 'Segoe UI Emoji';-inkscape-font-specification:'Cascadia, Segoe UI Emoji, Normal';font-variant-ligatures:normal;font-variant-caps:normal;font-variant-numeric:normal;font-variant-east-asian:normal"
         id="tspan946">Data</tspan></text>
  </g>
  <g
     transform="matrix(0.88483134,0,0,0.87166911,47.832081,25.169342)"
     id="g985"
     stroke-linecap="round">
    <g
       id="g977"
       transform="translate(665.21225,633.28213)">
      <path
         id="path975"
         fill="none"
         stroke-width="1"
         stroke="#000000"
         d="M 0,0 C -96.04,-0.09 -192.08,-0.18 -455.37,-0.43 M 0,0 c -176.68,-0.17 -353.35,-0.33 -455.37,-0.43" />
    </g>
    <g
       id="g983"
       transform="translate(665.21225,633.28213)">
      <path
         id="path979"
         fill-rule="evenodd"
         fill="#000000"
         stroke-width="0"
         stroke="none"
         d="m -455.37,-0.43 13.6,-6.33 -0.01,12.68 -13.59,-6.35" />
      <path
         id="path981"
         fill="none"
         stroke-width="1"
         stroke="#000000"
         d="m -455.37,-0.43 c 2.87,-1.33 5.73,-2.67 13.6,-6.33 m -13.6,6.33 c 5.27,-2.46 10.55,-4.91 13.6,-6.33 m 0,0 c -0.01,3.1 -0.01,6.2 -0.01,12.68 m 0.01,-12.68 c -0.01,4.44 -0.01,8.87 -0.01,12.68 m 0,0 c -5.1,-2.38 -10.2,-4.76 -13.59,-6.35 m 13.59,6.35 c -3.85,-1.8 -7.7,-3.59 -13.59,-6.35 m 0,0 c 0,0 0,0 0,0 m 0,0 c 0,0 0,0 0,0" />
    </g>
  </g>
  <g
     id="g989"
     transform="matrix(0.88483112,6.1395746e-4,-6.2322824e-4,0.87166889,286.29736,588.66586)">
    <text
       id="text987"
       direction="ltr"
       style="font-size:20px;font-family:Cascadia, 'Segoe UI Emoji';direction:ltr;text-anchor:start;white-space:pre;fill:#000000"
       text-anchor="start"
       fill="#000000"
       font-size="20px"
       font-family="Cascadia, 'Segoe UI Emoji'"
       y="20"
       x="0"><tspan
         style="font-style:normal;font-variant:normal;font-weight:normal;font-stretch:normal;font-size:30.3643px;font-family:Cascadia, 'Segoe UI Emoji';-inkscape-font-specification:'Cascadia, Segoe UI Emoji, Normal';font-variant-ligatures:normal;font-variant-caps:normal;font-variant-numeric:normal;font-variant-east-asian:normal"
         id="tspan936">... is analyzed to create ...</tspan></text>
  </g>
  <g
     id="g993"
     transform="translate(154.48494,690.0806)">
    <text
       id="text991"
       direction="ltr"
       style="white-space:pre;font-size:22.26200000000000045px;font-family:Cascadia, 'Segoe UI Emoji';direction:ltr;text-anchor:start;fill:#000000;"
       text-anchor="start"
       fill="#000000"
       font-size="22.262px"
       font-family="Cascadia, 'Segoe UI Emoji'"
       y="-42.405823"
       x="16.402836"><tspan
         style="font-style:normal;font-variant:normal;font-weight:normal;font-stretch:normal;font-size:26.6667px;font-family:Cascadia, 'Segoe UI Emoji';-inkscape-font-specification:'Cascadia, Segoe UI Emoji, Normal';font-variant-ligatures:normal;font-variant-caps:normal;font-variant-numeric:normal;font-variant-east-asian:normal"
         id="tspan948">Knowledge</tspan></text>
  </g>
  <g
     transform="matrix(0.88483134,0,0,0.87166911,47.832081,25.169342)"
     id="g1005"
     stroke-linecap="round">
    <g
       id="g997"
       transform="translate(199.79764,611.38293)">
      <path
         id="path995"
         fill="none"
         stroke-width="1"
         stroke="#000000"
         d="M 0,0 C 66.55,-110.51 133.09,-221.02 202.78,-336.76 M 0,0 c 59.28,-98.45 118.56,-196.89 202.78,-336.76" />
    </g>
    <g
       id="g1003"
       transform="translate(199.79764,611.38293)">
      <path
         id="path999"
         fill-rule="evenodd"
         fill="#000000"
         stroke-width="0"
         stroke="none"
         d="m 202.78,-336.76 -1.58,14.92 -10.86,-6.54 12.44,-8.38" />
      <path
         id="path1001"
         fill="none"
         stroke-width="1"
         stroke="#000000"
         d="m 202.78,-336.76 c -0.52,4.89 -1.04,9.79 -1.58,14.92 m 1.58,-14.92 c -0.46,4.36 -0.92,8.72 -1.58,14.92 m 0,0 c -2.31,-1.4 -4.62,-2.79 -10.86,-6.54 m 10.86,6.54 c -3.38,-2.04 -6.77,-4.08 -10.86,-6.54 m 0,0 c 3.34,-2.26 6.69,-4.51 12.44,-8.38 m -12.44,8.38 c 3.9,-2.63 7.8,-5.25 12.44,-8.38 m 0,0 c 0,0 0,0 0,0 m 0,0 c 0,0 0,0 0,0" />
    </g>
  </g>
  <g
     id="g1009"
     transform="matrix(0.45066628,-0.73743625,0.71508539,0.46475241,211.78018,522.92529)">
    <text
       dx="0 0 0 0 0 0 0 0 0 0 0 0 -1.6979315"
       id="text1007"
       direction="ltr"
       style="font-size:20px;font-family:Cascadia, 'Segoe UI Emoji';direction:ltr;text-anchor:start;white-space:pre;fill:#000000"
       text-anchor="start"
       fill="#000000"
       font-size="20px"
       font-family="Cascadia, 'Segoe UI Emoji'"
       y="19.318205"
       x="13.724986"><tspan
         style="font-style:normal;font-variant:normal;font-weight:normal;font-stretch:normal;font-size:30.3643px;font-family:sans-serif;-inkscape-font-specification:'sans-serif, Normal';font-variant-ligatures:normal;font-variant-caps:normal;font-variant-numeric:normal;font-variant-east-asian:normal"
         id="tspan932">... is used to change ...</tspan></text>
  </g>
  <g
     id="g1013"
     transform="translate(264.4575,10.157254)"
     stroke-linecap="round">
    <path
       id="path1011"
       fill="none"
       stroke-width="1"
       stroke="#000000"
       d="m 342.14,73.29 c 0,2.02 -0.2,4.05 -0.59,6.06 -0.39,2.01 -0.97,4.02 -1.75,6.01 -0.77,1.99 -1.74,3.97 -2.9,5.93 -1.16,1.95 -2.5,3.89 -4.03,5.8 -1.53,1.91 -3.25,3.8 -5.14,5.64 -1.89,1.85 -3.97,3.67 -6.21,5.45 -2.24,1.77 -4.66,3.51 -7.24,5.2 -2.58,1.69 -5.32,3.34 -8.22,4.93 -2.89,1.59 -5.94,3.14 -9.13,4.62 -3.19,1.49 -6.54,2.92 -10,4.29 -3.47,1.36 -7.07,2.67 -10.79,3.91 -3.72,1.24 -7.57,2.42 -11.51,3.52 -3.94,1.11 -8,2.14 -12.14,3.1 -4.14,0.96 -8.39,1.85 -12.71,2.66 -4.31,0.81 -8.71,1.55 -13.17,2.21 -4.45,0.65 -8.98,1.23 -13.55,1.72 -4.56,0.5 -9.19,0.91 -13.84,1.25 -4.64,0.33 -9.33,0.58 -14.03,0.75 -4.69,0.16 -9.41,0.25 -14.12,0.25 -4.71,0 -9.44,-0.09 -14.13,-0.25 -4.69,-0.17 -9.38,-0.42 -14.03,-0.75 -4.64,-0.34 -9.27,-0.75 -13.84,-1.25 -4.56,-0.49 -9.09,-1.07 -13.55,-1.72 -4.45,-0.66 -8.86,-1.4 -13.17,-2.21 -4.31,-0.81 -8.56,-1.7 -12.7,-2.66 -4.14,-0.96 -8.21,-1.99 -12.15,-3.1 -3.94,-1.1 -7.79,-2.28 -11.5,-3.52 -3.72,-1.24 -7.33,-2.55 -10.79,-3.91 -3.47,-1.37 -6.81,-2.8 -10,-4.29 -3.19,-1.48 -6.25,-3.03 -9.14,-4.62 -2.89,-1.59 -5.64,-3.24 -8.21,-4.93 -2.58,-1.69 -5,-3.43 -7.24,-5.2 -2.24,-1.78 -4.32,-3.6 -6.21,-5.45 C 12.52,100.89 10.8,99 9.27,97.09 7.74,95.18 6.39,93.24 5.23,91.29 4.08,89.33 3.11,87.35 2.33,85.36 1.56,83.37 0.97,81.36 0.58,79.35 0.2,77.34 0,75.31 0,73.29 c 0,-2.01 0.2,-4.04 0.58,-6.05 0.39,-2.01 0.98,-4.02 1.75,-6.01 0.78,-1.99 1.75,-3.97 2.9,-5.93 1.16,-1.95 2.51,-3.9 4.04,-5.81 1.53,-1.9 3.25,-3.79 5.14,-5.64 1.89,-1.85 3.97,-3.67 6.21,-5.44 2.24,-1.77 4.66,-3.52 7.24,-5.2 2.57,-1.69 5.32,-3.34 8.21,-4.93 2.89,-1.6 5.95,-3.14 9.14,-4.63 3.19,-1.48 6.53,-2.91 10,-4.28 3.46,-1.37 7.07,-2.68 10.79,-3.92 3.71,-1.23 7.56,-2.41 11.5,-3.52 3.94,-1.1 8.01,-2.14 12.15,-3.1 4.14,-0.96 8.39,-1.85 12.7,-2.66 4.31,-0.81 8.72,-1.54 13.17,-2.2 4.46,-0.65 8.99,-1.23 13.55,-1.73 4.57,-0.49 9.2,-0.91 13.84,-1.24 4.65,-0.33 9.34,-0.58 14.03,-0.75 4.69,-0.17 9.42,-0.25 14.13,-0.25 4.71,0 9.43,0.08 14.12,0.25 4.7,0.17 9.39,0.42 14.03,0.75 4.65,0.33 9.28,0.75 13.84,1.24 4.57,0.5 9.1,1.08 13.55,1.73 4.46,0.66 8.86,1.39 13.17,2.2 4.32,0.81 8.57,1.7 12.71,2.66 4.14,0.96 8.2,2 12.14,3.1 3.94,1.11 7.79,2.29 11.51,3.52 3.72,1.24 7.32,2.55 10.79,3.92 3.46,1.37 6.81,2.8 10,4.28 3.19,1.49 6.24,3.03 9.13,4.63 2.9,1.59 5.64,3.24 8.22,4.93 2.58,1.68 5,3.43 7.24,5.2 2.24,1.77 4.32,3.59 6.21,5.44 1.89,1.85 3.61,3.74 5.14,5.64 1.53,1.91 2.87,3.86 4.03,5.81 1.16,1.96 2.13,3.94 2.9,5.93 0.78,1.99 1.36,4 1.75,6.01 0.39,2.01 0.59,4.04 0.59,6.05" />
  </g>
  <g
     id="g1023"
     transform="translate(340.28268,40.152419)">
    <text
       id="text1015"
       direction="ltr"
       style="font-size:16px;font-family:Cascadia, 'Segoe UI Emoji';direction:ltr;text-anchor:start;white-space:pre;fill:#000000"
       text-anchor="start"
       fill="#000000"
       font-size="16px"
       font-family="Cascadia, 'Segoe UI Emoji'"
       y="18.482334"
       x="-23.858671"><tspan
         style="font-style:normal;font-variant:normal;font-weight:normal;font-stretch:normal;font-size:21.3333px;font-family:Cascadia, 'Segoe UI Emoji';-inkscape-font-specification:'Cascadia, Segoe UI Emoji, Normal';font-variant-ligatures:normal;font-variant-caps:normal;font-variant-numeric:normal;font-variant-east-asian:normal"
         id="tspan950">What is being studied?</tspan></text>
    <text
       id="text1017"
       direction="ltr"
       style="font-size:16px;font-family:Cascadia, 'Segoe UI Emoji';direction:ltr;text-anchor:start;white-space:pre;fill:#000000"
       text-anchor="start"
       fill="#000000"
       font-size="16px"
       font-family="Cascadia, 'Segoe UI Emoji'"
       y="37.982334"
       x="-23.858671"><tspan
         style="font-style:normal;font-variant:normal;font-weight:normal;font-stretch:normal;font-size:21.3333px;font-family:Cascadia, 'Segoe UI Emoji';-inkscape-font-specification:'Cascadia, Segoe UI Emoji, Normal';font-variant-ligatures:normal;font-variant-caps:normal;font-variant-numeric:normal;font-variant-east-asian:normal"
         id="tspan952">Who is studying it?</tspan></text>
    <text
       id="text1019"
       direction="ltr"
       style="font-size:16px;font-family:Cascadia, 'Segoe UI Emoji';direction:ltr;text-anchor:start;white-space:pre;fill:#000000"
       text-anchor="start"
       fill="#000000"
       font-size="16px"
       font-family="Cascadia, 'Segoe UI Emoji'"
       y="57.482334"
       x="-23.858671"><tspan
         style="font-style:normal;font-variant:normal;font-weight:normal;font-stretch:normal;font-size:21.3333px;font-family:Cascadia, 'Segoe UI Emoji';-inkscape-font-specification:'Cascadia, Segoe UI Emoji, Normal';font-variant-ligatures:normal;font-variant-caps:normal;font-variant-numeric:normal;font-variant-east-asian:normal"
         id="tspan954">Why are they studying it?</tspan></text>
    <text
       id="text1021"
       direction="ltr"
       style="white-space:pre"
       text-anchor="start"
       fill="#000000"
       font-size="16px"
       font-family="Cascadia, 'Segoe UI Emoji'"
       y="76.98233"
       x="-23.858671"><tspan
         style="font-style:normal;font-variant:normal;font-weight:normal;font-stretch:normal;font-size:21.3333px;font-family:Cascadia, 'Segoe UI Emoji';-inkscape-font-specification:'Cascadia, Segoe UI Emoji, Normal';font-variant-ligatures:normal;font-variant-caps:normal;font-variant-numeric:normal;font-variant-east-asian:normal"
         id="tspan956">What will they do about it?</tspan></text>
  </g>
  <text
     xml:space="preserve"
     id="text938"
     style="fill:black;fill-opacity:1;line-height:1.25;stroke:none;font-family:sans-serif;font-style:normal;font-weight:normal;font-size:40px;white-space:pre;shape-inside:url(#rect940);" />
</svg>
